<?xml version="1.0" encoding="iso-8859-1"?>
<!-- Generator: Adobe Illustrator 19.0.0, SVG Export Plug-In . SVG Version: 6.00 Build 0)  -->
<svg xmlns="http://www.w3.org/2000/svg" version="1.1" id="Layer_1" x="0px" y="0px" viewBox="0 0 505 505"
	 style="enable-background:new 0 0 505 505;" xml:space="preserve" width="512" height="512">
<g>
	<path d="M252.5,505c-67.445,0-130.854-26.265-178.544-73.956S0,319.945,0,252.5S26.265,121.646,73.956,73.956S185.055,0,252.5,0   s130.854,26.265,178.544,73.956S505,185.055,505,252.5s-26.265,130.854-73.956,178.544S319.945,505,252.5,505z M252.5,15   c-63.438,0-123.08,24.704-167.938,69.562S15,189.062,15,252.5s24.704,123.08,69.562,167.938S189.062,490,252.5,490   s123.08-24.704,167.938-69.562S490,315.938,490,252.5s-24.704-123.08-69.562-167.938S315.938,15,252.5,15z"/>
	<path d="M252.5,450.378c-109.11,0-197.878-88.768-197.878-197.878S143.39,54.622,252.5,54.622   c109.111,0,197.879,88.768,197.879,197.878c0,40.849-12.345,80.063-35.699,113.403c-2.377,3.393-7.053,4.215-10.446,1.839   c-3.392-2.376-4.216-7.053-1.839-10.446c21.579-30.805,32.984-67.043,32.984-104.796c0-100.839-82.039-182.878-182.879-182.878   c-100.839,0-182.878,82.039-182.878,182.878S151.661,435.378,252.5,435.378c47.31,0,92.189-18,126.37-50.684   c2.993-2.862,7.741-2.756,10.604,0.238c2.862,2.994,2.756,7.741-0.238,10.604C352.251,430.902,303.69,450.378,252.5,450.378z"/>
	<path d="M322.023,394.192c-9.689,0-18.478-4.937-23.51-13.206L252.5,305.391l-46.013,75.596   c-5.033,8.269-13.821,13.205-23.51,13.205c-5.029,0-9.967-1.388-14.279-4.013c-6.274-3.818-10.686-9.853-12.422-16.99   c-1.736-7.137-0.589-14.523,3.23-20.798L203.568,280h-33.825c-15.164,0-27.5-12.336-27.5-27.5s12.336-27.5,27.5-27.5h33.825   l-7.651-12.57c-2.153-3.538-1.031-8.152,2.507-10.306c3.537-2.153,8.152-1.031,10.306,2.507l14.589,23.969   c1.409,2.315,1.459,5.211,0.131,7.574c-1.328,2.363-3.828,3.826-6.538,3.826h-47.17c-6.893,0-12.5,5.607-12.5,12.5   s5.607,12.5,12.5,12.5h47.17c2.71,0,5.21,1.462,6.538,3.826c1.328,2.363,1.278,5.258-0.131,7.574l-51.001,83.791   c-1.736,2.852-2.258,6.209-1.469,9.454c0.79,3.244,2.795,5.987,5.647,7.723c1.962,1.194,4.203,1.826,6.48,1.826   c4.41,0,8.408-2.245,10.696-6.004l52.42-86.122c1.361-2.236,3.789-3.601,6.407-3.601s5.045,1.365,6.407,3.601l52.419,86.122   c2.288,3.76,6.287,6.004,10.696,6.004c2.277,0,4.518-0.631,6.48-1.826c2.852-1.736,4.857-4.479,5.646-7.723   c0.79-3.244,0.268-6.602-1.468-9.454l-51.001-83.791c-1.409-2.315-1.459-5.211-0.131-7.574c1.328-2.363,3.828-3.826,6.538-3.826   h47.17c6.893,0,12.5-5.607,12.5-12.5s-5.607-12.5-12.5-12.5h-47.17c-2.71,0-5.21-1.462-6.538-3.826   c-1.328-2.363-1.278-5.258,0.131-7.574l51.001-83.791c1.736-2.852,2.258-6.209,1.468-9.454c-0.789-3.244-2.794-5.987-5.646-7.723   c-2.852-1.736-6.209-2.257-9.453-1.469c-3.244,0.789-5.987,2.795-7.724,5.647l-52.419,86.121c-1.361,2.236-3.789,3.601-6.407,3.601   s-5.045-1.365-6.407-3.601l-52.42-86.122c-1.736-2.852-4.479-4.857-7.723-5.646c-3.245-0.789-6.602-0.268-9.454,1.468   s-4.857,4.479-5.647,7.723c-0.789,3.244-0.268,6.602,1.468,9.454l19.427,31.916c2.153,3.538,1.031,8.152-2.507,10.306   c-3.539,2.154-8.152,1.031-10.306-2.507l-19.426-31.916c-3.819-6.274-4.966-13.661-3.23-20.798   c1.736-7.138,6.148-13.172,12.423-16.991c6.275-3.818,13.661-4.966,20.798-3.229c7.138,1.736,13.171,6.148,16.991,12.422   l46.013,75.596l46.013-75.596c3.82-6.275,9.854-10.687,16.991-12.423c7.138-1.737,14.525-0.589,20.798,3.23   c6.274,3.818,10.686,9.853,12.422,16.99c1.736,7.137,0.589,14.523-3.23,20.798L301.432,225h33.825c15.164,0,27.5,12.336,27.5,27.5   s-12.336,27.5-27.5,27.5h-33.825l44.063,72.392c3.819,6.274,4.966,13.661,3.23,20.798c-1.736,7.138-6.148,13.172-12.423,16.991   C331.989,392.805,327.052,394.192,322.023,394.192z"/>
</g>















</svg>
